<mxfile host="app.diagrams.net" modified="2022-10-08T07:35:28.484Z" agent="5.0 (Macintosh; Intel Mac OS X 10_15_7) AppleWebKit/537.36 (KHTML, like Gecko) Chrome/105.0.0.0 Safari/537.36" etag="WIMKA-IEqgqteEQVcrtF" version="20.3.0" type="github">
  <diagram id="qCeXnP35Ua99ViHNPVoV" name="第 1 页">
    <mxGraphModel dx="1119" dy="739" grid="1" gridSize="10" guides="1" tooltips="1" connect="1" arrows="1" fold="1" page="1" pageScale="1" pageWidth="827" pageHeight="1169" math="0" shadow="0">
      <root>
        <mxCell id="0" />
        <mxCell id="1" parent="0" />
        <mxCell id="17y4d3eTdWRauUXxlNtH-3" value="" style="shape=mxgraph.cisco.people.androgenous_person;sketch=0;html=1;pointerEvents=1;dashed=0;fillColor=#036897;strokeColor=#ffffff;strokeWidth=2;verticalLabelPosition=bottom;verticalAlign=top;align=center;outlineConnect=0;" vertex="1" parent="1">
          <mxGeometry x="130" y="550" width="50" height="50" as="geometry" />
        </mxCell>
        <mxCell id="17y4d3eTdWRauUXxlNtH-4" value="" style="shape=mxgraph.cisco.people.mac_woman;sketch=0;html=1;pointerEvents=1;dashed=0;fillColor=#036897;strokeColor=#ffffff;strokeWidth=2;verticalLabelPosition=bottom;verticalAlign=top;align=center;outlineConnect=0;direction=east;" vertex="1" parent="1">
          <mxGeometry x="300" y="550" width="50" height="60" as="geometry" />
        </mxCell>
        <mxCell id="17y4d3eTdWRauUXxlNtH-6" value="" style="shape=mxgraph.cisco.switches.layer_2_remote_switch;sketch=0;html=1;pointerEvents=1;dashed=0;fillColor=#036897;strokeColor=#ffffff;strokeWidth=2;verticalLabelPosition=bottom;verticalAlign=top;align=center;outlineConnect=0;" vertex="1" parent="1">
          <mxGeometry x="100" y="440" width="80" height="30" as="geometry" />
        </mxCell>
        <mxCell id="17y4d3eTdWRauUXxlNtH-7" value="" style="shape=mxgraph.cisco.switches.multiswitch_device;sketch=0;html=1;pointerEvents=1;dashed=0;fillColor=#036897;strokeColor=#ffffff;strokeWidth=2;verticalLabelPosition=bottom;verticalAlign=top;align=center;outlineConnect=0;" vertex="1" parent="1">
          <mxGeometry x="190" y="330" width="100" height="64" as="geometry" />
        </mxCell>
        <mxCell id="17y4d3eTdWRauUXxlNtH-8" value="" style="shape=mxgraph.cisco.switches.layer_2_remote_switch;sketch=0;html=1;pointerEvents=1;dashed=0;fillColor=#036897;strokeColor=#ffffff;strokeWidth=2;verticalLabelPosition=bottom;verticalAlign=top;align=center;outlineConnect=0;" vertex="1" parent="1">
          <mxGeometry x="295.5" y="435" width="70" height="40" as="geometry" />
        </mxCell>
        <mxCell id="17y4d3eTdWRauUXxlNtH-17" value="" style="shape=mxgraph.cisco.switches.multiswitch_device;sketch=0;html=1;pointerEvents=1;dashed=0;fillColor=#036897;strokeColor=#ffffff;strokeWidth=2;verticalLabelPosition=bottom;verticalAlign=top;align=center;outlineConnect=0;" vertex="1" parent="1">
          <mxGeometry x="350" y="330" width="101" height="64" as="geometry" />
        </mxCell>
        <mxCell id="17y4d3eTdWRauUXxlNtH-18" value="" style="endArrow=none;html=1;rounded=0;exitX=1;exitY=0.5;exitDx=0;exitDy=0;exitPerimeter=0;" edge="1" parent="1" source="17y4d3eTdWRauUXxlNtH-7">
          <mxGeometry width="50" height="50" relative="1" as="geometry">
            <mxPoint x="390" y="420" as="sourcePoint" />
            <mxPoint x="440" y="370" as="targetPoint" />
          </mxGeometry>
        </mxCell>
        <mxCell id="17y4d3eTdWRauUXxlNtH-23" value="" style="endArrow=none;html=1;rounded=0;entryX=0;entryY=0.5;entryDx=0;entryDy=0;entryPerimeter=0;" edge="1" parent="1" target="17y4d3eTdWRauUXxlNtH-7">
          <mxGeometry width="50" height="50" relative="1" as="geometry">
            <mxPoint x="130" y="450" as="sourcePoint" />
            <mxPoint x="180" y="400" as="targetPoint" />
            <Array as="points">
              <mxPoint x="170" y="420" />
              <mxPoint x="190" y="410" />
            </Array>
          </mxGeometry>
        </mxCell>
        <mxCell id="17y4d3eTdWRauUXxlNtH-24" value="" style="endArrow=none;html=1;rounded=0;exitX=0.5;exitY=0;exitDx=0;exitDy=0;exitPerimeter=0;" edge="1" parent="1" source="17y4d3eTdWRauUXxlNtH-8">
          <mxGeometry width="50" height="50" relative="1" as="geometry">
            <mxPoint x="390" y="420" as="sourcePoint" />
            <mxPoint x="440" y="370" as="targetPoint" />
          </mxGeometry>
        </mxCell>
        <mxCell id="17y4d3eTdWRauUXxlNtH-26" value="" style="endArrow=none;html=1;rounded=0;entryX=0.5;entryY=1;entryDx=0;entryDy=0;entryPerimeter=0;" edge="1" parent="1" source="17y4d3eTdWRauUXxlNtH-3" target="17y4d3eTdWRauUXxlNtH-6">
          <mxGeometry width="50" height="50" relative="1" as="geometry">
            <mxPoint x="130" y="530" as="sourcePoint" />
            <mxPoint x="180" y="480" as="targetPoint" />
          </mxGeometry>
        </mxCell>
        <mxCell id="17y4d3eTdWRauUXxlNtH-27" value="" style="endArrow=none;html=1;rounded=0;exitX=0.42;exitY=0;exitDx=0;exitDy=0;exitPerimeter=0;" edge="1" parent="1" source="17y4d3eTdWRauUXxlNtH-4" target="17y4d3eTdWRauUXxlNtH-8">
          <mxGeometry width="50" height="50" relative="1" as="geometry">
            <mxPoint x="290" y="560" as="sourcePoint" />
            <mxPoint x="340" y="510" as="targetPoint" />
          </mxGeometry>
        </mxCell>
      </root>
    </mxGraphModel>
  </diagram>
</mxfile>
